<!-- Generated by IcoMoon.io -->
<svg version="1.1" xmlns="http://www.w3.org/2000/svg" width="768" height="768" viewBox="0 0 768 768">
<title></title>
<g id="icomoon-ignore">
</g>
<path fill="#000" d="M544.5 384q-45 0-81 21.75t-57.75 57.75-21.75 81q0 43.5 21.75 80.25t57.75 57.75 81 21q43.5 0 80.25-21t57.75-57.75 21-80.25q0-45-21-81t-57.75-57.75-80.25-21.75zM597 619.5l-69-69v-102h31.5v88.5l60 60zM576 96h-102q-10.5-28.5-34.5-46.5t-55.5-18-55.5 18-34.5 46.5h-102q-27 0-45.75 18.75t-18.75 45.75v480q0 25.5 18.75 44.25t45.75 18.75h195q-28.5-27-45-63h-150v-480h64.5v96h255v-96h64.5v162q33 4.5 64.5 19.5v-181.5q0-27-18.75-45.75t-45.75-18.75zM384 160.5q-13.5 0-22.5-9.75t-9-23.25q0-12 9-21.75t22.5-9.75 22.5 9.75 9 21.75q0 13.5-9 23.25t-22.5 9.75z"></path>
</svg>
